<svg width="163" height="53" viewBox="0 0 163 53" fill="none" xmlns="http://www.w3.org/2000/svg">
<path d="M48.9937 17H51.5449C53.9136 17 55.2241 15.5337 55.2241 13.1274V13.1167C55.2241 10.7158 53.9082 9.24951 51.5449 9.24951H48.9937V17ZM49.7295 16.334V9.91553H51.502C53.3926 9.91553 54.4722 11.124 54.4722 13.1221V13.1328C54.4722 15.1309 53.3979 16.334 51.502 16.334H49.7295ZM59.1504 17.0967C60.7671 17.0967 61.7822 15.9526 61.7822 14.1104V14.0996C61.7822 12.2573 60.7671 11.1187 59.1504 11.1187C57.5337 11.1187 56.5239 12.2573 56.5239 14.0996V14.1104C56.5239 15.9526 57.5337 17.0967 59.1504 17.0967ZM59.1504 16.4629C57.958 16.4629 57.249 15.5713 57.249 14.1104V14.0996C57.249 12.6387 57.958 11.7524 59.1504 11.7524C60.3428 11.7524 61.0518 12.6387 61.0518 14.0996V14.1104C61.0518 15.5713 60.3428 16.4629 59.1504 16.4629ZM64.1885 17H64.9297L66.353 12.1982H66.4229L67.8462 17H68.5928L70.2417 11.2153H69.5327L68.2383 16.1245H68.1738L66.7451 11.2153H66.0415L64.6128 16.1245H64.5483L63.2646 11.2153H62.5503L64.1885 17ZM71.5093 17H72.2183V13.5625C72.2183 12.4722 72.9111 11.7524 73.9316 11.7524C74.936 11.7524 75.4355 12.3164 75.4355 13.4175V17H76.1445V13.2402C76.1445 11.8921 75.4087 11.1187 74.1196 11.1187C73.2173 11.1187 72.5942 11.5322 72.2881 12.2305H72.2183V11.2153H71.5093V17ZM77.9653 17H78.6743V8.91113H77.9653V17ZM82.8799 17.0967C84.4966 17.0967 85.5117 15.9526 85.5117 14.1104V14.0996C85.5117 12.2573 84.4966 11.1187 82.8799 11.1187C81.2632 11.1187 80.2534 12.2573 80.2534 14.0996V14.1104C80.2534 15.9526 81.2632 17.0967 82.8799 17.0967ZM82.8799 16.4629C81.6875 16.4629 80.9785 15.5713 80.9785 14.1104V14.0996C80.9785 12.6387 81.6875 11.7524 82.8799 11.7524C84.0723 11.7524 84.7812 12.6387 84.7812 14.0996V14.1104C84.7812 15.5713 84.0723 16.4629 82.8799 16.4629ZM88.627 17.0967C89.481 17.0967 90.1738 16.6938 90.5176 16.0063H90.582V17H91.2964V13.0469C91.2964 11.8276 90.5068 11.1187 89.1533 11.1187C87.9556 11.1187 87.0801 11.7095 86.9297 12.6333L86.9243 12.6548H87.6387L87.644 12.644C87.7944 12.0693 88.3477 11.7524 89.1318 11.7524C90.0664 11.7524 90.582 12.2036 90.582 13.0522V13.5947L88.7773 13.7129C87.4399 13.8042 86.6934 14.3896 86.6934 15.394V15.4048C86.6934 16.436 87.5098 17.0967 88.627 17.0967ZM87.4185 15.394V15.3833C87.4185 14.728 87.8911 14.3574 88.874 14.293L90.582 14.1748V14.8462C90.582 15.7646 89.7979 16.4736 88.7612 16.4736C87.9824 16.4736 87.4185 16.0547 87.4185 15.394ZM95.2334 17.0967C96.125 17.0967 96.8394 16.624 97.1777 15.8452H97.2422V17H97.9565V8.91113H97.2422V12.3433H97.1777C96.8555 11.5967 96.1089 11.1187 95.2334 11.1187C93.7671 11.1187 92.7896 12.311 92.7896 14.105V14.1157C92.7896 15.8989 93.7725 17.0967 95.2334 17.0967ZM95.3838 16.4629C94.2397 16.4629 93.5146 15.5444 93.5146 14.1104V14.0996C93.5146 12.6709 94.2397 11.7524 95.3838 11.7524C96.5225 11.7524 97.2583 12.6763 97.2583 14.0996V14.1104C97.2583 15.5391 96.5225 16.4629 95.3838 16.4629ZM105.127 17.0967C106.744 17.0967 107.759 15.9526 107.759 14.1104V14.0996C107.759 12.2573 106.744 11.1187 105.127 11.1187C103.51 11.1187 102.5 12.2573 102.5 14.0996V14.1104C102.5 15.9526 103.51 17.0967 105.127 17.0967ZM105.127 16.4629C103.935 16.4629 103.226 15.5713 103.226 14.1104V14.0996C103.226 12.6387 103.935 11.7524 105.127 11.7524C106.319 11.7524 107.028 12.6387 107.028 14.0996V14.1104C107.028 15.5713 106.319 16.4629 105.127 16.4629ZM109.279 17H109.988V13.5625C109.988 12.4722 110.681 11.7524 111.701 11.7524C112.706 11.7524 113.205 12.3164 113.205 13.4175V17H113.914V13.2402C113.914 11.8921 113.178 11.1187 111.889 11.1187C110.987 11.1187 110.364 11.5322 110.058 12.2305H109.988V11.2153H109.279V17ZM120.558 17.0376C120.73 17.0376 120.891 17.0215 121.052 16.9946V16.3823C120.907 16.3984 120.8 16.4038 120.639 16.4038C119.983 16.4038 119.731 16.1084 119.731 15.3994V11.8115H121.052V11.2153H119.731V9.71143H118.995V11.2153H118.066V11.8115H118.995V15.5605C118.995 16.6133 119.452 17.0376 120.558 17.0376ZM122.588 17H123.297V13.5625C123.297 12.4722 123.99 11.7524 125.011 11.7524C126.01 11.7524 126.515 12.3164 126.515 13.4175V17H127.224V13.2402C127.224 11.8921 126.488 11.1187 125.199 11.1187C124.296 11.1187 123.673 11.5269 123.367 12.2305H123.297V8.91113H122.588V17ZM131.322 17.0967C132.6 17.0967 133.443 16.3984 133.669 15.6143L133.685 15.5713H132.971L132.949 15.6089C132.761 16.0601 132.181 16.4575 131.338 16.4575C130.188 16.4575 129.447 15.6465 129.426 14.293H133.771V13.9922C133.771 12.2788 132.815 11.1187 131.263 11.1187C129.71 11.1187 128.701 12.311 128.701 14.1157V14.1265C128.701 15.9419 129.7 17.0967 131.322 17.0967ZM131.263 11.7524C132.256 11.7524 132.971 12.4292 133.051 13.7129H129.431C129.522 12.4614 130.264 11.7524 131.263 11.7524Z" fill="white"/>
<path d="M48.6064 39H50.2676L51.542 35.3701H56.5869L57.8613 39H59.5225L54.8467 26.3174H53.2822L48.6064 39ZM53.9941 28.3652H54.1348L56.1211 34.0254H52.0078L53.9941 28.3652ZM61.5527 42.1641H63.082V37.5059H63.2227C63.7412 38.5166 64.875 39.167 66.1758 39.167C68.584 39.167 70.1484 37.2422 70.1484 34.2715V34.2539C70.1484 31.3008 68.5752 29.3584 66.1758 29.3584C64.8574 29.3584 63.8027 29.9824 63.2227 31.0371H63.082V29.5254H61.5527V42.1641ZM65.8242 37.8135C64.1016 37.8135 63.0469 36.46 63.0469 34.2715V34.2539C63.0469 32.0654 64.1016 30.7119 65.8242 30.7119C67.5557 30.7119 68.584 32.0479 68.584 34.2539V34.2715C68.584 36.4775 67.5557 37.8135 65.8242 37.8135ZM72.5391 42.1641H74.0684V37.5059H74.209C74.7275 38.5166 75.8613 39.167 77.1621 39.167C79.5703 39.167 81.1348 37.2422 81.1348 34.2715V34.2539C81.1348 31.3008 79.5615 29.3584 77.1621 29.3584C75.8438 29.3584 74.7891 29.9824 74.209 31.0371H74.0684V29.5254H72.5391V42.1641ZM76.8105 37.8135C75.0879 37.8135 74.0332 36.46 74.0332 34.2715V34.2539C74.0332 32.0654 75.0879 30.7119 76.8105 30.7119C78.542 30.7119 79.5703 32.0479 79.5703 34.2539V34.2715C79.5703 36.4775 78.542 37.8135 76.8105 37.8135ZM92.9385 39.2988C95.7686 39.2988 97.623 37.8223 97.623 35.4492V35.4404C97.623 33.6123 96.5771 32.5488 93.9316 31.96L92.5254 31.6436C90.8027 31.2656 90.1084 30.5801 90.1084 29.5693V29.5605C90.1084 28.2334 91.3301 27.4863 92.9121 27.4775C94.5645 27.4688 95.6191 28.2949 95.7949 29.4111L95.8125 29.5254H97.3945L97.3857 29.4023C97.2539 27.5127 95.4873 26.0186 92.9561 26.0186C90.3369 26.0186 88.5 27.5039 88.4912 29.6045V29.6133C88.4912 31.4502 89.5898 32.6191 92.1299 33.1816L93.5361 33.4893C95.2764 33.876 96.0059 34.5967 96.0059 35.6514V35.6602C96.0059 36.9521 94.749 37.8398 93.0264 37.8398C91.1982 37.8398 89.8799 37.04 89.7656 35.7744L89.7568 35.6777H88.1748L88.1836 35.7744C88.3682 37.8398 90.1611 39.2988 92.9385 39.2988ZM103.433 39.0703C103.731 39.0703 104.021 39.0352 104.32 38.9824V37.6816C104.039 37.708 103.89 37.7168 103.617 37.7168C102.633 37.7168 102.246 37.2686 102.246 36.1523V30.791H104.32V29.5254H102.246V27.0732H100.664V29.5254H99.1699V30.791H100.664V36.5391C100.664 38.3496 101.481 39.0703 103.433 39.0703ZM110.358 39.167C113.057 39.167 114.727 37.3037 114.727 34.2715V34.2539C114.727 31.2129 113.057 29.3584 110.358 29.3584C107.66 29.3584 105.99 31.2129 105.99 34.2539V34.2715C105.99 37.3037 107.66 39.167 110.358 39.167ZM110.358 37.8135C108.565 37.8135 107.555 36.5039 107.555 34.2715V34.2539C107.555 32.0127 108.565 30.7119 110.358 30.7119C112.151 30.7119 113.162 32.0127 113.162 34.2539V34.2715C113.162 36.5039 112.151 37.8135 110.358 37.8135ZM117.1 39H118.629V33.1289C118.629 31.7402 119.666 30.8174 121.125 30.8174C121.459 30.8174 121.749 30.8525 122.065 30.9053V29.4199C121.916 29.3936 121.591 29.3584 121.301 29.3584C120.018 29.3584 119.13 29.9385 118.77 30.9316H118.629V29.5254H117.1V39ZM127.559 39.167C129.791 39.167 131.145 37.9014 131.47 36.6182L131.487 36.5479H129.958L129.923 36.627C129.668 37.1982 128.877 37.8047 127.594 37.8047C125.906 37.8047 124.825 36.6621 124.781 34.7021H131.602V34.1045C131.602 31.2744 130.037 29.3584 127.462 29.3584C124.887 29.3584 123.217 31.3623 123.217 34.2891V34.2979C123.217 37.2686 124.852 39.167 127.559 39.167ZM127.453 30.7207C128.851 30.7207 129.888 31.6084 130.046 33.4805H124.808C124.975 31.6787 126.047 30.7207 127.453 30.7207Z" fill="white"/>
<path d="M32.0057 27.3563C31.9912 24.8921 33.1077 23.0349 35.3624 21.6654C34.1014 19.8588 32.1936 18.8651 29.6787 18.6736C27.2976 18.4857 24.6924 20.0611 23.7385 20.0611C22.7304 20.0611 20.4251 18.7387 18.6112 18.7387C14.8679 18.7965 10.8896 21.7232 10.8896 27.6779C10.8896 29.4376 11.2112 31.2551 11.8544 33.1268C12.7144 35.591 15.8146 41.6288 19.0484 41.5312C20.7395 41.4915 21.9354 40.3316 24.1359 40.3316C26.2714 40.3316 27.3771 41.5312 29.2632 41.5312C32.526 41.4843 35.3299 35.9957 36.1465 33.5242C31.7708 31.461 32.0057 27.4828 32.0057 27.3563ZM28.2081 16.3358C30.04 14.1606 29.8738 12.1806 29.8196 11.4688C28.2009 11.5627 26.3292 12.5708 25.2633 13.8102C24.089 15.1398 23.3988 16.7839 23.547 18.6375C25.2958 18.7712 26.8929 17.8715 28.2081 16.3358Z" fill="white"/>
<rect x="0.25" y="0.25" width="162.5" height="52.5" rx="10.75" stroke="white" stroke-width="0.5"/>
</svg>
