<svg width="35" height="35" viewBox="0 0 35 35" fill="none" xmlns="http://www.w3.org/2000/svg">
<path d="M18 11.375C20.1333 11.375 20.4 11.375 21.2667 11.4375C23.4667 11.5 24.4667 12.5 24.5333 14.5C24.6 15.3125 24.6 15.5 24.6 17.5C24.6 19.5 24.6 19.75 24.5333 20.5C24.4667 22.5 23.4 23.5 21.2667 23.5625C20.4 23.625 20.2 23.625 18 23.625C15.8667 23.625 15.6 23.625 14.8 23.5625C12.6 23.5 11.6 22.5 11.5333 20.5C11.4667 19.6875 11.4667 19.5 11.4667 17.5C11.4667 15.5 11.4667 15.25 11.5333 14.5C11.6 12.5 12.6667 11.5 14.8 11.4375C15.6 11.375 15.8667 11.375 18 11.375ZM18 10C15.8 10 15.5333 10 14.7333 10.0625C11.8 10.1875 10.2 11.6875 10.0667 14.4375C10 15.1875 10 15.4375 10 17.5C10 19.5625 10 19.8125 10.0667 20.5625C10.2 23.3125 11.8 24.8125 14.7333 24.9375C15.5333 25 15.8 25 18 25C20.2 25 20.4667 25 21.2667 24.9375C24.2 24.8125 25.8 23.3125 25.9333 20.5625C26 19.8125 26 19.5625 26 17.5C26 15.4375 26 15.1875 25.9333 14.4375C25.8 11.6875 24.2 10.1875 21.2667 10.0625C20.4667 10 20.2 10 18 10ZM18 13.625C15.7333 13.625 13.8667 15.375 13.8667 17.5C13.8667 19.625 15.7333 21.375 18 21.375C20.2667 21.375 22.1333 19.625 22.1333 17.5C22.1333 15.375 20.2667 13.625 18 13.625ZM18 20C16.5333 20 15.3333 18.875 15.3333 17.5C15.3333 16.125 16.5333 15 18 15C19.4667 15 20.6667 16.125 20.6667 17.5C20.6667 18.875 19.4667 20 18 20ZM22.2667 12.625C21.7333 12.625 21.3333 13 21.3333 13.5C21.3333 14 21.7333 14.375 22.2667 14.375C22.8 14.375 23.2 14 23.2 13.5C23.2 13 22.8 12.625 22.2667 12.625Z" fill="white"/>
<circle cx="17.5" cy="17.5" r="17.25" stroke="#D0D0D0" stroke-width="0.5"/>
</svg>
