<svg width="46" height="46" viewBox="0 0 46 46" fill="none" xmlns="http://www.w3.org/2000/svg">
<circle cx="23" cy="23" r="23" fill="url(#paint0_linear_150_781)"/>
<path d="M21.9103 18.338L22.1249 18.3322H30.8749C31.8432 18.3321 32.7749 18.7025 33.4788 19.3673C34.1827 20.0322 34.6056 20.9413 34.6608 21.908L34.6666 22.1238V23.9438C34.1458 23.4441 33.5566 23.021 32.9166 22.6873V22.1238C32.9166 21.5823 32.7015 21.063 32.3186 20.6801C31.9357 20.2973 31.4164 20.0822 30.8749 20.0822H22.1249C21.6125 20.0822 21.1189 20.2749 20.742 20.6219C20.365 20.969 20.1324 21.4452 20.0903 21.9558L20.0833 22.1238V30.8738C20.0833 31.3864 20.2761 31.8802 20.6235 32.2571C20.9708 32.6341 21.4472 32.8666 21.9581 32.9085L22.1249 32.9155H22.6873C23.0221 33.5572 23.4456 34.1463 23.9426 34.6655H22.1249C21.1564 34.6656 20.2246 34.295 19.5206 33.6299C18.8167 32.9647 18.3939 32.0554 18.3391 31.0885L18.3333 30.875V22.125C18.3332 21.1565 18.7037 20.2247 19.3689 19.5207C20.034 18.8167 20.9433 18.394 21.9103 18.3392V18.338Z" fill="white"/>
<path d="M27.1789 13.9385L27.2396 14.145L28.0481 17.1643H26.2362L25.5502 14.5976C25.4809 14.3385 25.3612 14.0956 25.198 13.8827C25.0347 13.6699 24.8312 13.4913 24.5989 13.3572C24.3666 13.223 24.1101 13.136 23.8442 13.101C23.5782 13.066 23.308 13.0838 23.0489 13.1533L14.5976 15.419C14.1042 15.5513 13.6784 15.8637 13.4041 16.2946C13.1298 16.7254 13.027 17.2435 13.1159 17.7465L13.1532 17.9191L15.4189 26.3705C15.5252 26.7676 15.7489 27.1234 16.0607 27.3913C16.3725 27.6592 16.758 27.8267 17.1666 27.872V29.629C16.408 29.5838 15.6805 29.3118 15.0784 28.8484C14.4762 28.3849 14.027 27.7513 13.7891 27.0296L13.7284 26.8243L11.4639 18.3718C11.2131 17.4366 11.3296 16.4408 11.7894 15.5887C12.2493 14.7366 13.0178 14.0927 13.9372 13.7891L14.1449 13.7285L22.5962 11.464C23.5315 11.2131 24.5272 11.3296 25.3793 11.7895C26.2314 12.2494 26.8753 13.0179 27.1789 13.9373V13.9385Z" fill="white"/>
<path d="M35.8333 29.4167C35.8333 27.7149 35.1573 26.0828 33.9539 24.8794C32.7506 23.676 31.1185 23 29.4167 23C27.7149 23 26.0828 23.676 24.8794 24.8794C23.676 26.0828 23 27.7149 23 29.4167C23 31.1185 23.676 32.7506 24.8794 33.9539C26.0828 35.1573 27.7149 35.8333 29.4167 35.8333C31.1185 35.8333 32.7506 35.1573 33.9539 33.9539C35.1573 32.7506 35.8333 31.1185 35.8333 29.4167ZM29.3117 25.3415L29.4167 25.3333L29.5217 25.3427C29.6382 25.364 29.7455 25.4202 29.8293 25.504C29.9131 25.5878 29.9694 25.6951 29.9907 25.8117L30 25.9167V28.8333L32.9225 28.8345L33.0275 28.8438C33.1441 28.8651 33.2514 28.9214 33.3351 29.0052C33.4189 29.089 33.4752 29.1963 33.4965 29.3128L33.5058 29.4178L33.4965 29.5228C33.4751 29.6395 33.4187 29.747 33.3347 29.8308C33.2507 29.9146 33.1431 29.9708 33.0263 29.9918L32.9213 30.0012H30.0012V32.9213L29.9918 33.0263C29.9705 33.1429 29.9143 33.2502 29.8305 33.334C29.7467 33.4178 29.6394 33.474 29.5228 33.4953L29.4178 33.5047L29.3128 33.4953C29.1963 33.474 29.089 33.4178 29.0052 33.334C28.9214 33.2502 28.8651 33.1429 28.8438 33.0263L28.8345 32.9213V30H25.9143L25.8093 29.9907C25.6928 29.9694 25.5855 29.9131 25.5017 29.8293C25.4179 29.7455 25.3616 29.6382 25.3403 29.5217L25.331 29.4167L25.3403 29.3117C25.3616 29.1951 25.4179 29.0878 25.5017 29.004C25.5855 28.9202 25.6928 28.864 25.8093 28.8427L25.9143 28.8333H28.8333V25.9167L28.8427 25.8117C28.8637 25.6949 28.9199 25.5873 29.0037 25.5033C29.0875 25.4193 29.195 25.3629 29.3117 25.3415Z" fill="white"/>
<defs>
<linearGradient id="paint0_linear_150_781" x1="3.42727e-07" y1="23" x2="46" y2="23" gradientUnits="userSpaceOnUse">
<stop stop-color="#5D00FA"/>
<stop offset="1" stop-color="#D70BCA"/>
</linearGradient>
</defs>
</svg>
