<svg width="46" height="46" viewBox="0 0 46 46" fill="none" xmlns="http://www.w3.org/2000/svg">
<circle cx="23" cy="23" r="23" fill="url(#paint0_linear_150_784)"/>
<path d="M29.2198 15.3094L31.6908 17.7792L29.2198 15.3094ZM30.8088 13.1335L24.1273 19.815C23.7821 20.1598 23.5467 20.599 23.4507 21.0774L22.8335 24.1667L25.9228 23.5484C26.4012 23.4527 26.8398 23.2182 27.1852 22.8729L33.8667 16.1914C34.0674 15.9906 34.2267 15.7522 34.3354 15.4899C34.444 15.2276 34.5 14.9464 34.5 14.6625C34.5 14.3785 34.444 14.0973 34.3354 13.835C34.2267 13.5727 34.0674 13.3343 33.8667 13.1335C33.6659 12.9328 33.4275 12.7735 33.1652 12.6648C32.9029 12.5562 32.6217 12.5002 32.3377 12.5002C32.0538 12.5002 31.7726 12.5562 31.5103 12.6648C31.248 12.7735 31.0096 12.9328 30.8088 13.1335V13.1335Z" stroke="white" stroke-width="2" stroke-linecap="round" stroke-linejoin="round"/>
<path d="M32.1667 26.5V30C32.1667 30.6189 31.9209 31.2124 31.4833 31.65C31.0457 32.0875 30.4523 32.3334 29.8334 32.3334H17.0001C16.3812 32.3334 15.7878 32.0875 15.3502 31.65C14.9126 31.2124 14.6667 30.6189 14.6667 30V17.1667C14.6667 16.5479 14.9126 15.9544 15.3502 15.5168C15.7878 15.0792 16.3812 14.8334 17.0001 14.8334H20.5001" stroke="white" stroke-width="2" stroke-linecap="round" stroke-linejoin="round"/>
<defs>
<linearGradient id="paint0_linear_150_784" x1="3.42727e-07" y1="23" x2="46" y2="23" gradientUnits="userSpaceOnUse">
<stop stop-color="#5D00FA"/>
<stop offset="1" stop-color="#D70BCA"/>
</linearGradient>
</defs>
</svg>
