<svg width="46" height="46" viewBox="0 0 46 46" fill="none" xmlns="http://www.w3.org/2000/svg">
<circle cx="23" cy="23" r="23" fill="url(#paint0_linear_150_782)"/>
<path d="M17.1667 23.2916C17.1667 23.0596 17.2589 22.837 17.423 22.6729C17.5871 22.5088 17.8097 22.4166 18.0417 22.4166C18.2738 22.4166 18.4964 22.5088 18.6605 22.6729C18.8246 22.837 18.9167 23.0596 18.9167 23.2916C18.9167 23.5237 18.8246 23.7463 18.6605 23.9104C18.4964 24.0745 18.2738 24.1666 18.0417 24.1666C17.8097 24.1666 17.5871 24.0745 17.423 23.9104C17.2589 23.7463 17.1667 23.5237 17.1667 23.2916ZM18.0417 25.9166C17.8097 25.9166 17.5871 26.0088 17.423 26.1729C17.2589 26.337 17.1667 26.5596 17.1667 26.7916C17.1667 27.0237 17.2589 27.2463 17.423 27.4104C17.5871 27.5745 17.8097 27.6666 18.0417 27.6666C18.2738 27.6666 18.4964 27.5745 18.6605 27.4104C18.8246 27.2463 18.9167 27.0237 18.9167 26.7916C18.9167 26.5596 18.8246 26.337 18.6605 26.1729C18.4964 26.0088 18.2738 25.9166 18.0417 25.9166ZM17.1667 30.2916C17.1667 30.0596 17.2589 29.837 17.423 29.6729C17.5871 29.5088 17.8097 29.4166 18.0417 29.4166C18.2738 29.4166 18.4964 29.5088 18.6605 29.6729C18.8246 29.837 18.9167 30.0596 18.9167 30.2916C18.9167 30.5237 18.8246 30.7463 18.6605 30.9104C18.4964 31.0745 18.2738 31.1666 18.0417 31.1666C17.8097 31.1666 17.5871 31.0745 17.423 30.9104C17.2589 30.7463 17.1667 30.5237 17.1667 30.2916ZM21.5417 22.4166C21.3097 22.4166 21.0871 22.5088 20.923 22.6729C20.7589 22.837 20.6667 23.0596 20.6667 23.2916C20.6667 23.5237 20.7589 23.7463 20.923 23.9104C21.0871 24.0745 21.3097 24.1666 21.5417 24.1666H27.9584C28.1905 24.1666 28.413 24.0745 28.5771 23.9104C28.7412 23.7463 28.8334 23.5237 28.8334 23.2916C28.8334 23.0596 28.7412 22.837 28.5771 22.6729C28.413 22.5088 28.1905 22.4166 27.9584 22.4166H21.5417ZM20.6667 26.7916C20.6667 26.5596 20.7589 26.337 20.923 26.1729C21.0871 26.0088 21.3097 25.9166 21.5417 25.9166H27.9584C28.1905 25.9166 28.413 26.0088 28.5771 26.1729C28.7412 26.337 28.8334 26.5596 28.8334 26.7916C28.8334 27.0237 28.7412 27.2463 28.5771 27.4104C28.413 27.5745 28.1905 27.6666 27.9584 27.6666H21.5417C21.3097 27.6666 21.0871 27.5745 20.923 27.4104C20.7589 27.2463 20.6667 27.0237 20.6667 26.7916ZM21.5417 29.4166C21.3097 29.4166 21.0871 29.5088 20.923 29.6729C20.7589 29.837 20.6667 30.0596 20.6667 30.2916C20.6667 30.5237 20.7589 30.7463 20.923 30.9104C21.0871 31.0745 21.3097 31.1666 21.5417 31.1666H27.9584C28.1905 31.1666 28.413 31.0745 28.5771 30.9104C28.7412 30.7463 28.8334 30.5237 28.8334 30.2916C28.8334 30.0596 28.7412 29.837 28.5771 29.6729C28.413 29.5088 28.1905 29.4166 27.9584 29.4166H21.5417ZM31.6497 18.8163L24.8492 12.017C24.8312 12.0002 24.8121 11.9846 24.7921 11.9703C24.7776 11.9592 24.7636 11.9475 24.7501 11.9353C24.6698 11.8596 24.5844 11.7894 24.4946 11.7253C24.4647 11.706 24.4335 11.6889 24.4012 11.674L24.3452 11.646L24.2869 11.6121C24.2239 11.576 24.1597 11.5386 24.0932 11.5106C23.8609 11.4179 23.615 11.3635 23.3652 11.3496C23.3419 11.3485 23.3186 11.345 23.2964 11.3415C23.2647 11.3366 23.2328 11.3339 23.2007 11.3333H16.0001C15.3812 11.3333 14.7878 11.5791 14.3502 12.0167C13.9126 12.4543 13.6667 13.0478 13.6667 13.6666V32.3333C13.6667 32.9522 13.9126 33.5456 14.3502 33.9832C14.7878 34.4208 15.3812 34.6666 16.0001 34.6666H30.0001C30.6189 34.6666 31.2124 34.4208 31.65 33.9832C32.0876 33.5456 32.3334 32.9522 32.3334 32.3333V20.466C32.3333 19.8472 32.0874 19.2538 31.6497 18.8163ZM30.5834 32.3333C30.5834 32.488 30.522 32.6364 30.4126 32.7458C30.3032 32.8552 30.1548 32.9166 30.0001 32.9166H16.0001C15.8454 32.9166 15.697 32.8552 15.5876 32.7458C15.4782 32.6364 15.4167 32.488 15.4167 32.3333V13.6666C15.4167 13.5119 15.4782 13.3636 15.5876 13.2542C15.697 13.1448 15.8454 13.0833 16.0001 13.0833H23.0001V18.3333C23.0001 18.9522 23.2459 19.5456 23.6835 19.9832C24.1211 20.4208 24.7146 20.6666 25.3334 20.6666H30.5834V32.3333ZM24.7501 14.3911L29.2744 18.9166H25.3334C25.1787 18.9166 25.0303 18.8552 24.9209 18.7458C24.8115 18.6364 24.7501 18.488 24.7501 18.3333V14.3911Z" fill="white"/>
<defs>
<linearGradient id="paint0_linear_150_782" x1="3.42727e-07" y1="23" x2="46" y2="23" gradientUnits="userSpaceOnUse">
<stop stop-color="#5D00FA"/>
<stop offset="1" stop-color="#D70BCA"/>
</linearGradient>
</defs>
</svg>
