<svg width="18" height="19" viewBox="0 0 18 19" fill="none" xmlns="http://www.w3.org/2000/svg">
<path d="M2.98279 7.88C3.01296 7.5041 3.18361 7.15336 3.46075 6.89763C3.73789 6.64189 4.10119 6.49992 4.47829 6.5H13.5218C13.8989 6.49992 14.2622 6.64189 14.5393 6.89763C14.8165 7.15336 14.9871 7.5041 15.0173 7.88L15.6195 15.38C15.6361 15.5864 15.6098 15.794 15.5422 15.9897C15.4746 16.1854 15.3672 16.365 15.2268 16.5172C15.0864 16.6694 14.916 16.7908 14.7263 16.8739C14.5367 16.957 14.3319 16.9999 14.1248 17H3.87529C3.66823 16.9999 3.46343 16.957 3.27377 16.8739C3.08412 16.7908 2.91372 16.6694 2.77331 16.5172C2.6329 16.365 2.52552 16.1854 2.45792 15.9897C2.39032 15.794 2.36398 15.5864 2.38054 15.38L2.98279 7.88V7.88Z" stroke="white" stroke-width="2" stroke-linecap="round" stroke-linejoin="round"/>
<path d="M12 8.75V5C12 4.20435 11.6839 3.44129 11.1213 2.87868C10.5587 2.31607 9.79565 2 9 2C8.20435 2 7.44129 2.31607 6.87868 2.87868C6.31607 3.44129 6 4.20435 6 5V8.75" stroke="white" stroke-width="2" stroke-linecap="round" stroke-linejoin="round"/>
</svg>
