<svg width="21" height="20" viewBox="0 0 21 20" fill="none" xmlns="http://www.w3.org/2000/svg">
<g clip-path="url(#clip0_128_1911)">
<path d="M10.525 9.97501C12.8204 9.97501 14.6812 8.11419 14.6812 5.81876C14.6812 3.52332 12.8204 1.66251 10.525 1.66251C8.22953 1.66251 6.36871 3.52332 6.36871 5.81876C6.36871 8.11419 8.22953 9.97501 10.525 9.97501Z" stroke="white" stroke-width="1.5"/>
<path d="M14.6812 11.6375H14.9738C15.5815 11.6377 16.1683 11.8598 16.6238 12.262C17.0793 12.6643 17.3723 13.219 17.4476 13.822L17.7726 16.4189C17.8019 16.6528 17.781 16.8903 17.7114 17.1155C17.6419 17.3408 17.5252 17.5487 17.3692 17.7254C17.2131 17.9021 17.0213 18.0437 16.8063 18.1406C16.5914 18.2375 16.3584 18.2876 16.1226 18.2875H4.92733C4.69157 18.2876 4.4585 18.2375 4.24358 18.1406C4.02866 18.0437 3.83681 17.9021 3.68076 17.7254C3.52472 17.5487 3.40804 17.3408 3.33848 17.1155C3.26892 16.8903 3.24806 16.6528 3.2773 16.4189L3.60148 13.822C3.67688 13.2187 3.97007 12.6638 4.42594 12.2615C4.88181 11.8592 5.46895 11.6373 6.07695 11.6375H6.36871" stroke="white" stroke-width="1.5" stroke-linecap="round" stroke-linejoin="round"/>
</g>
<defs>
<clipPath id="clip0_128_1911">
<rect width="19.95" height="19.95" fill="white" transform="translate(0.549988)"/>
</clipPath>
</defs>
</svg>
