<svg width="163" height="53" viewBox="0 0 163 53" fill="none" xmlns="http://www.w3.org/2000/svg">
<path d="M48.9937 17H51.5449C53.9136 17 55.2241 15.5337 55.2241 13.1274V13.1167C55.2241 10.7158 53.9082 9.24951 51.5449 9.24951H48.9937V17ZM49.7295 16.334V9.91553H51.502C53.3926 9.91553 54.4722 11.124 54.4722 13.1221V13.1328C54.4722 15.1309 53.3979 16.334 51.502 16.334H49.7295ZM59.1504 17.0967C60.7671 17.0967 61.7822 15.9526 61.7822 14.1104V14.0996C61.7822 12.2573 60.7671 11.1187 59.1504 11.1187C57.5337 11.1187 56.5239 12.2573 56.5239 14.0996V14.1104C56.5239 15.9526 57.5337 17.0967 59.1504 17.0967ZM59.1504 16.4629C57.958 16.4629 57.249 15.5713 57.249 14.1104V14.0996C57.249 12.6387 57.958 11.7524 59.1504 11.7524C60.3428 11.7524 61.0518 12.6387 61.0518 14.0996V14.1104C61.0518 15.5713 60.3428 16.4629 59.1504 16.4629ZM64.1885 17H64.9297L66.353 12.1982H66.4229L67.8462 17H68.5928L70.2417 11.2153H69.5327L68.2383 16.1245H68.1738L66.7451 11.2153H66.0415L64.6128 16.1245H64.5483L63.2646 11.2153H62.5503L64.1885 17ZM71.5093 17H72.2183V13.5625C72.2183 12.4722 72.9111 11.7524 73.9316 11.7524C74.936 11.7524 75.4355 12.3164 75.4355 13.4175V17H76.1445V13.2402C76.1445 11.8921 75.4087 11.1187 74.1196 11.1187C73.2173 11.1187 72.5942 11.5322 72.2881 12.2305H72.2183V11.2153H71.5093V17ZM77.9653 17H78.6743V8.91113H77.9653V17ZM82.8799 17.0967C84.4966 17.0967 85.5117 15.9526 85.5117 14.1104V14.0996C85.5117 12.2573 84.4966 11.1187 82.8799 11.1187C81.2632 11.1187 80.2534 12.2573 80.2534 14.0996V14.1104C80.2534 15.9526 81.2632 17.0967 82.8799 17.0967ZM82.8799 16.4629C81.6875 16.4629 80.9785 15.5713 80.9785 14.1104V14.0996C80.9785 12.6387 81.6875 11.7524 82.8799 11.7524C84.0723 11.7524 84.7812 12.6387 84.7812 14.0996V14.1104C84.7812 15.5713 84.0723 16.4629 82.8799 16.4629ZM88.627 17.0967C89.481 17.0967 90.1738 16.6938 90.5176 16.0063H90.582V17H91.2964V13.0469C91.2964 11.8276 90.5068 11.1187 89.1533 11.1187C87.9556 11.1187 87.0801 11.7095 86.9297 12.6333L86.9243 12.6548H87.6387L87.644 12.644C87.7944 12.0693 88.3477 11.7524 89.1318 11.7524C90.0664 11.7524 90.582 12.2036 90.582 13.0522V13.5947L88.7773 13.7129C87.4399 13.8042 86.6934 14.3896 86.6934 15.394V15.4048C86.6934 16.436 87.5098 17.0967 88.627 17.0967ZM87.4185 15.394V15.3833C87.4185 14.728 87.8911 14.3574 88.874 14.293L90.582 14.1748V14.8462C90.582 15.7646 89.7979 16.4736 88.7612 16.4736C87.9824 16.4736 87.4185 16.0547 87.4185 15.394ZM95.2334 17.0967C96.125 17.0967 96.8394 16.624 97.1777 15.8452H97.2422V17H97.9565V8.91113H97.2422V12.3433H97.1777C96.8555 11.5967 96.1089 11.1187 95.2334 11.1187C93.7671 11.1187 92.7896 12.311 92.7896 14.105V14.1157C92.7896 15.8989 93.7725 17.0967 95.2334 17.0967ZM95.3838 16.4629C94.2397 16.4629 93.5146 15.5444 93.5146 14.1104V14.0996C93.5146 12.6709 94.2397 11.7524 95.3838 11.7524C96.5225 11.7524 97.2583 12.6763 97.2583 14.0996V14.1104C97.2583 15.5391 96.5225 16.4629 95.3838 16.4629ZM105.127 17.0967C106.744 17.0967 107.759 15.9526 107.759 14.1104V14.0996C107.759 12.2573 106.744 11.1187 105.127 11.1187C103.51 11.1187 102.5 12.2573 102.5 14.0996V14.1104C102.5 15.9526 103.51 17.0967 105.127 17.0967ZM105.127 16.4629C103.935 16.4629 103.226 15.5713 103.226 14.1104V14.0996C103.226 12.6387 103.935 11.7524 105.127 11.7524C106.319 11.7524 107.028 12.6387 107.028 14.0996V14.1104C107.028 15.5713 106.319 16.4629 105.127 16.4629ZM109.279 17H109.988V13.5625C109.988 12.4722 110.681 11.7524 111.701 11.7524C112.706 11.7524 113.205 12.3164 113.205 13.4175V17H113.914V13.2402C113.914 11.8921 113.178 11.1187 111.889 11.1187C110.987 11.1187 110.364 11.5322 110.058 12.2305H109.988V11.2153H109.279V17ZM120.558 17.0376C120.73 17.0376 120.891 17.0215 121.052 16.9946V16.3823C120.907 16.3984 120.8 16.4038 120.639 16.4038C119.983 16.4038 119.731 16.1084 119.731 15.3994V11.8115H121.052V11.2153H119.731V9.71143H118.995V11.2153H118.066V11.8115H118.995V15.5605C118.995 16.6133 119.452 17.0376 120.558 17.0376ZM122.588 17H123.297V13.5625C123.297 12.4722 123.99 11.7524 125.011 11.7524C126.01 11.7524 126.515 12.3164 126.515 13.4175V17H127.224V13.2402C127.224 11.8921 126.488 11.1187 125.199 11.1187C124.296 11.1187 123.673 11.5269 123.367 12.2305H123.297V8.91113H122.588V17ZM131.322 17.0967C132.6 17.0967 133.443 16.3984 133.669 15.6143L133.685 15.5713H132.971L132.949 15.6089C132.761 16.0601 132.181 16.4575 131.338 16.4575C130.188 16.4575 129.447 15.6465 129.426 14.293H133.771V13.9922C133.771 12.2788 132.815 11.1187 131.263 11.1187C129.71 11.1187 128.701 12.311 128.701 14.1157V14.1265C128.701 15.9419 129.7 17.0967 131.322 17.0967ZM131.263 11.7524C132.256 11.7524 132.971 12.4292 133.051 13.7129H129.431C129.522 12.4614 130.264 11.7524 131.263 11.7524Z" fill="white"/>
<path d="M54.873 39.2988C58.1162 39.2988 60.2607 37.2246 60.2607 34.0957V32.5488H55.1191V33.9375H58.6787V34.2451C58.6787 36.3896 57.1494 37.8398 54.8818 37.8398C52.333 37.8398 50.7422 35.8535 50.7422 32.6631V32.6455C50.7422 29.499 52.3594 27.4775 54.873 27.4775C56.7627 27.4775 58.0371 28.374 58.5557 30.0088L58.582 30.0967H60.1816L60.1641 30.0088C59.6631 27.6006 57.6855 26.0186 54.873 26.0186C51.4014 26.0186 49.125 28.6465 49.125 32.6455V32.6631C49.125 36.7148 51.3662 39.2988 54.873 39.2988ZM66.7646 39.167C69.4629 39.167 71.1328 37.3037 71.1328 34.2715V34.2539C71.1328 31.2129 69.4629 29.3584 66.7646 29.3584C64.0664 29.3584 62.3965 31.2129 62.3965 34.2539V34.2715C62.3965 37.3037 64.0664 39.167 66.7646 39.167ZM66.7646 37.8135C64.9717 37.8135 63.9609 36.5039 63.9609 34.2715V34.2539C63.9609 32.0127 64.9717 30.7119 66.7646 30.7119C68.5576 30.7119 69.5684 32.0127 69.5684 34.2539V34.2715C69.5684 36.5039 68.5576 37.8135 66.7646 37.8135ZM77.3994 39.167C80.0977 39.167 81.7676 37.3037 81.7676 34.2715V34.2539C81.7676 31.2129 80.0977 29.3584 77.3994 29.3584C74.7012 29.3584 73.0312 31.2129 73.0312 34.2539V34.2715C73.0312 37.3037 74.7012 39.167 77.3994 39.167ZM77.3994 37.8135C75.6064 37.8135 74.5957 36.5039 74.5957 34.2715V34.2539C74.5957 32.0127 75.6064 30.7119 77.3994 30.7119C79.1924 30.7119 80.2031 32.0127 80.2031 34.2539V34.2715C80.2031 36.5039 79.1924 37.8135 77.3994 37.8135ZM88.043 42.3398C90.627 42.3398 92.2617 40.9863 92.2617 38.8682V29.5254H90.7324V31.0898H90.627C90.0469 30.0176 89.0098 29.3584 87.6738 29.3584C85.1953 29.3584 83.666 31.2832 83.666 33.9375V33.9551C83.666 36.6094 85.1865 38.5078 87.6387 38.5078C88.9395 38.5078 90.0117 37.9189 90.6094 36.873H90.75V38.7891C90.75 40.1865 89.7393 40.9863 88.043 40.9863C86.6807 40.9863 85.8369 40.4766 85.6699 39.7559L85.6611 39.7471H84.0791L84.0615 39.7559C84.2988 41.3115 85.7578 42.3398 88.043 42.3398ZM87.9727 37.1543C86.2148 37.1543 85.2305 35.8359 85.2305 33.9551V33.9375C85.2305 32.0566 86.2148 30.7119 87.9727 30.7119C89.7217 30.7119 90.7852 32.0566 90.7852 33.9375V33.9551C90.7852 35.8359 89.7305 37.1543 87.9727 37.1543ZM95.1973 39H96.7266V25.7637H95.1973V39ZM103.529 39.167C105.762 39.167 107.115 37.9014 107.44 36.6182L107.458 36.5479H105.929L105.894 36.627C105.639 37.1982 104.848 37.8047 103.564 37.8047C101.877 37.8047 100.796 36.6621 100.752 34.7021H107.572V34.1045C107.572 31.2744 106.008 29.3584 103.433 29.3584C100.857 29.3584 99.1875 31.3623 99.1875 34.2891V34.2979C99.1875 37.2686 100.822 39.167 103.529 39.167ZM103.424 30.7207C104.821 30.7207 105.858 31.6084 106.017 33.4805H100.778C100.945 31.6787 102.018 30.7207 103.424 30.7207ZM115.201 39H116.783V34.4736H119.982C122.364 34.4736 124.052 32.7949 124.052 30.3867V30.3691C124.052 27.9609 122.364 26.3174 119.982 26.3174H115.201V39ZM119.578 27.7236C121.389 27.7236 122.435 28.7168 122.435 30.3867V30.4043C122.435 32.0742 121.389 33.0674 119.578 33.0674H116.783V27.7236H119.578ZM126.539 39H128.068V25.7637H126.539V39ZM133.605 39.167C134.88 39.167 135.873 38.6133 136.471 37.6025H136.611V39H138.141V32.5137C138.141 30.5449 136.849 29.3584 134.537 29.3584C132.516 29.3584 131.074 30.3604 130.828 31.8457L130.819 31.8984H132.349L132.357 31.8721C132.604 31.1338 133.351 30.7119 134.484 30.7119C135.899 30.7119 136.611 31.3447 136.611 32.5137V33.375L133.896 33.542C131.689 33.6738 130.441 34.6494 130.441 36.3369V36.3545C130.441 38.0771 131.804 39.167 133.605 39.167ZM132.006 36.3193V36.3018C132.006 35.3613 132.639 34.8516 134.08 34.7637L136.611 34.6055V35.4668C136.611 36.8203 135.478 37.8398 133.922 37.8398C132.823 37.8398 132.006 37.2773 132.006 36.3193ZM141.393 42.3223C143.071 42.3223 143.854 41.707 144.636 39.5801L148.336 29.5254H146.728L144.135 37.3213H143.994L141.393 29.5254H139.758L143.265 39.0088L143.089 39.5713C142.746 40.6611 142.219 41.0566 141.349 41.0566C141.138 41.0566 140.9 41.0479 140.716 41.0127V42.2695C140.927 42.3047 141.19 42.3223 141.393 42.3223Z" fill="white"/>
<rect x="0.25" y="0.25" width="162.5" height="52.5" rx="10.75" stroke="white" stroke-width="0.5"/>
<g clip-path="url(#clip0_101_499)">
<path d="M33.1763 31.2793C36.473 29.458 38.9722 28.0701 39.1876 27.9622C39.8767 27.5935 40.5883 26.6176 39.1876 25.8596C38.7353 25.6212 36.3004 24.2765 33.1763 22.5425L28.8455 26.9433L33.1763 31.2792V31.2793Z" fill="#FFD900"/>
<path d="M28.8455 26.9431L15.0557 40.9271C15.3793 40.9702 15.7448 40.8838 16.1756 40.6455C17.0801 40.1474 26.6688 34.8786 33.1763 31.2802L28.8455 26.9431Z" fill="#F43249"/>
<path d="M28.8455 26.9432L33.1763 22.564C33.1763 22.564 17.1455 13.7613 16.1756 13.2417C15.8102 13.0239 15.4007 12.9592 15.0342 13.0239L28.8455 26.9432Z" fill="#00EE76"/>
<path d="M28.8455 26.9432L15.0342 13.0239C14.4737 13.1543 14 13.6526 14 14.6716V39.2794C14 40.2121 14.3665 40.8839 15.0556 40.9487L28.8455 26.9432Z" fill="#00D3FF"/>
</g>
<defs>
<clipPath id="clip0_101_499">
<rect width="26" height="28" fill="white" transform="translate(14 13)"/>
</clipPath>
</defs>
</svg>
