<svg width="35" height="35" viewBox="0 0 35 35" fill="none" xmlns="http://www.w3.org/2000/svg">
<circle cx="17.5" cy="17.5" r="17.25" stroke="#D0D0D0" stroke-width="0.5"/>
<path d="M26.7471 12.497C26.1557 12.759 25.5203 12.9361 24.8523 13.0162C25.5415 12.6038 26.0572 11.9547 26.303 11.1901C25.6555 11.5747 24.9468 11.8454 24.2078 11.9905C23.7108 11.4599 23.0525 11.1081 22.3352 10.99C21.6178 10.8718 20.8815 10.9937 20.2405 11.3369C19.5996 11.68 19.0899 12.2252 18.7905 12.8877C18.4912 13.5503 18.4189 14.2931 18.585 15.0009C17.2729 14.935 15.9894 14.594 14.8177 14C13.646 13.4059 12.6122 12.5722 11.7836 11.5527C11.5003 12.0415 11.3373 12.6082 11.3373 13.2117C11.337 13.755 11.4708 14.2899 11.7268 14.7691C11.9829 15.2483 12.3532 15.6569 12.805 15.9586C12.281 15.9419 11.7686 15.8003 11.3104 15.5456V15.5881C11.3104 16.3501 11.5739 17.0886 12.0564 17.6784C12.5389 18.2682 13.2106 18.6729 13.9575 18.8238C13.4714 18.9553 12.9618 18.9747 12.4671 18.8805C12.6779 19.5361 13.0883 20.1094 13.6411 20.5202C14.1939 20.931 14.8612 21.1586 15.5498 21.1712C14.3809 22.0888 12.9374 22.5865 11.4514 22.5843C11.1881 22.5844 10.9251 22.569 10.6637 22.5383C12.1721 23.5081 13.928 24.0228 15.7212 24.0208C21.7916 24.0208 25.1102 18.9931 25.1102 14.6326C25.1102 14.4909 25.1066 14.3478 25.1003 14.2062C25.7458 13.7394 26.3029 13.1613 26.7457 12.4991L26.7471 12.497Z" fill="white"/>
</svg>
