<svg width="18" height="18" viewBox="0 0 18 18" fill="none" xmlns="http://www.w3.org/2000/svg">
<g clip-path="url(#clip0_128_1947)">
<path d="M13.8339 10H5.16613M13.8339 10H15.025C15.2836 10 15.5316 10.1011 15.7144 10.2812C15.8973 10.4612 16 10.7054 16 10.96V17.04C16 17.1661 15.9748 17.2909 15.9258 17.4074C15.8768 17.5238 15.805 17.6297 15.7144 17.7188C15.6239 17.808 15.5164 17.8787 15.3981 17.9269C15.2798 17.9752 15.153 18 15.025 18H3.975C3.84696 18 3.72018 17.9752 3.60188 17.9269C3.48359 17.8787 3.37611 17.808 3.28557 17.7188C3.19503 17.6297 3.12322 17.5238 3.07422 17.4074C3.02522 17.2909 3 17.1661 3 17.04V10.96C3 10.7054 3.10272 10.4612 3.28557 10.2812C3.46842 10.1011 3.71641 10 3.975 10H5.16613H13.8339ZM13.8339 10V6C13.8339 4.6672 12.9661 2 9.5 2C6.03388 2 5.16613 4.6672 5.16613 6V10H13.8339Z" stroke="white" stroke-width="1.5" stroke-linecap="round" stroke-linejoin="round"/>
</g>
<defs>
<clipPath id="clip0_128_1947">
<rect width="18" height="18" fill="white"/>
</clipPath>
</defs>
</svg>
