<svg width="20" height="20" viewBox="0 0 20 20" fill="none" xmlns="http://www.w3.org/2000/svg">
<path d="M3.18052 2.8688V2.86551H3.18382C3.84688 2.80665 4.51133 2.76455 5.17651 2.73925C6.77946 2.67557 8.68213 2.68435 10.0951 2.89515C10.1837 2.91233 10.2645 2.95734 10.3257 3.0236L18.8388 11.5357C18.89 11.5867 18.9305 11.6472 18.9582 11.7139C18.9859 11.7806 19.0001 11.8521 19.0001 11.9243C19.0001 11.9965 18.9859 12.068 18.9582 12.1347C18.9305 12.2014 18.89 12.262 18.8388 12.313L12.628 18.5227C12.5251 18.6256 12.3855 18.6835 12.2399 18.6835C12.0943 18.6835 11.9547 18.6256 11.8518 18.5227L3.33862 10.0107C3.27235 9.94945 3.22735 9.86868 3.21017 9.78011C2.99937 8.36711 2.99059 6.46444 3.05426 4.8615C3.08501 4.06881 3.13441 3.36944 3.18052 2.8688V2.8688Z" stroke="white" stroke-width="1.5" stroke-linecap="round"/>
<path d="M8.84854 8.62634C9.2773 8.19758 9.2773 7.50243 8.84854 7.07367C8.41978 6.64491 7.72463 6.64491 7.29587 7.07367C6.86711 7.50243 6.86711 8.19758 7.29587 8.62634C7.72463 9.0551 8.41978 9.0551 8.84854 8.62634Z" fill="white"/>
</svg>
