<svg width="20" height="20" viewBox="0 0 20 20" fill="none" xmlns="http://www.w3.org/2000/svg">
<path d="M14.1673 6.66666V5.83332C14.1673 3.53582 12.2982 1.66666 10.0007 1.66666C7.70315 1.66666 5.83398 3.53582 5.83398 5.83332V8.33332H5.00065C4.08148 8.33332 3.33398 9.08082 3.33398 9.99999V16.6667C3.33398 17.5858 4.08148 18.3333 5.00065 18.3333H15.0007C15.9198 18.3333 16.6673 17.5858 16.6673 16.6667V9.99999C16.6673 9.08082 15.9198 8.33332 15.0007 8.33332H7.50065V5.83332C7.50065 4.45499 8.62232 3.33332 10.0007 3.33332C11.379 3.33332 12.5007 4.45499 12.5007 5.83332V6.66666H14.1673ZM15.0007 9.99999L15.0023 16.6667H5.00065V9.99999H15.0007Z" fill="white"/>
</svg>
