<svg width="20" height="20" viewBox="0 0 20 20" fill="none" xmlns="http://www.w3.org/2000/svg">
<g clip-path="url(#clip0_190_943)">
<path d="M9.99935 1.66669L13.3327 4.44419M9.99935 9.16669L9.99935 1.66669L9.99935 9.16669ZM9.99935 1.66669L6.66602 4.44419L9.99935 1.66669Z" stroke="white" stroke-width="1.5" stroke-linecap="round" stroke-linejoin="round"/>
<path d="M5.83278 9.16669L4.31111 9.16669C4.08059 9.1667 3.85258 9.21453 3.64149 9.30716C3.43039 9.39979 3.24081 9.5352 3.08472 9.70484C2.92864 9.87448 2.80944 10.0747 2.73466 10.2927C2.65988 10.5108 2.63115 10.742 2.65028 10.9717L3.20528 17.6384C3.23998 18.055 3.42999 18.4433 3.73762 18.7264C4.04526 19.0095 4.44805 19.1667 4.86612 19.1667L15.1328 19.1667C15.5508 19.1667 15.9536 19.0095 16.2613 18.7264C16.5689 18.4433 16.7589 18.055 16.7936 17.6384L17.3494 10.9717C17.3686 10.7419 17.3398 10.5106 17.265 10.2925C17.1902 10.0744 17.0709 9.87418 16.9147 9.70453C16.7585 9.53488 16.5689 9.39949 16.3577 9.30691C16.1465 9.21433 15.9184 9.16658 15.6878 9.16669L14.1661 9.16669" stroke="white" stroke-width="1.5" stroke-linecap="round" stroke-linejoin="round"/>
</g>
<defs>
<clipPath id="clip0_190_943">
<rect width="20" height="20" fill="white" transform="translate(0 20) rotate(-90)"/>
</clipPath>
</defs>
</svg>
