<svg width="20" height="20" viewBox="0 0 20 20" fill="none" xmlns="http://www.w3.org/2000/svg">
<path d="M9.9991 10C12.2121 10 14.006 8.20604 14.006 5.99309C14.006 3.78013 12.2121 1.98618 9.9991 1.98618C7.78614 1.98618 5.99219 3.78013 5.99219 5.99309C5.99219 8.20604 7.78614 10 9.9991 10Z" stroke="white" stroke-width="1.5"/>
<path d="M14.0065 11.6028H14.2886C14.8745 11.6029 15.4401 11.817 15.8793 12.2048C16.3185 12.5926 16.6009 13.1274 16.6735 13.7088L16.9869 16.2123C17.0151 16.4378 16.995 16.6668 16.9279 16.884C16.8608 17.1011 16.7483 17.3015 16.5979 17.4719C16.4475 17.6423 16.2625 17.7787 16.0553 17.8721C15.8481 17.9656 15.6234 18.0139 15.3961 18.0138H4.60311C4.37583 18.0139 4.15113 17.9656 3.94393 17.8721C3.73674 17.7787 3.55178 17.6423 3.40134 17.4719C3.2509 17.3015 3.13842 17.1011 3.07136 16.884C3.00429 16.6668 2.98419 16.4378 3.01237 16.2123L3.32491 13.7088C3.39759 13.1272 3.68025 12.5921 4.11975 12.2043C4.55924 11.8164 5.12528 11.6025 5.71143 11.6028H5.99271" stroke="white" stroke-width="1.5" stroke-linecap="round" stroke-linejoin="round"/>
</svg>
