<svg width="20" height="20" viewBox="0 0 20 20" fill="none" xmlns="http://www.w3.org/2000/svg">
<path d="M8.33398 4.44444H13.334V5.55555H8.33398V4.44444Z" fill="white"/>
<path d="M8.33398 6.66667H13.334V7.77778H8.33398V6.66667Z" fill="white"/>
<path d="M8.33398 8.88889H13.334V10H8.33398V8.88889Z" fill="white"/>
<path d="M8.33398 11.1111H13.334V12.2222H8.33398V11.1111Z" fill="white"/>
<path d="M8.33398 13.3333H13.334V14.4445H8.33398V13.3333Z" fill="white"/>
<path d="M6.11133 4.44444H7.22244V5.55555H6.11133V4.44444Z" fill="white"/>
<path d="M6.11133 6.66667H7.22244V7.77778H6.11133V6.66667Z" fill="white"/>
<path d="M6.11133 8.88889H7.22244V10H6.11133V8.88889Z" fill="white"/>
<path d="M6.11133 11.1111H7.22244V12.2222H6.11133V11.1111Z" fill="white"/>
<path d="M6.11133 13.3333H7.22244V14.4445H6.11133V13.3333Z" fill="white"/>
<path d="M15.5562 1.11111H4.4451C4.15041 1.11111 3.86779 1.22818 3.65942 1.43655C3.45105 1.64493 3.33398 1.92754 3.33398 2.22223V17.7778C3.33398 18.0725 3.45105 18.3551 3.65942 18.5635C3.86779 18.7718 4.15041 18.8889 4.4451 18.8889H15.5562C15.8509 18.8889 16.1335 18.7718 16.3419 18.5635C16.5503 18.3551 16.6673 18.0725 16.6673 17.7778V2.22223C16.6673 1.92754 16.5503 1.64493 16.3419 1.43655C16.1335 1.22818 15.8509 1.11111 15.5562 1.11111ZM15.5562 17.7778H4.4451V2.22223H15.5562V17.7778Z" fill="white"/>
</svg>
