<svg width="20" height="20" viewBox="0 0 20 20" fill="none" xmlns="http://www.w3.org/2000/svg">
<path d="M3.31318 8.2C3.3467 7.78234 3.53631 7.39262 3.84424 7.10847C4.15218 6.82432 4.55584 6.66658 4.97485 6.66666H15.0232C15.4422 6.66658 15.8459 6.82432 16.1538 7.10847C16.4617 7.39262 16.6513 7.78234 16.6848 8.2L17.354 16.5333C17.3724 16.7627 17.3431 16.9933 17.268 17.2108C17.1929 17.4282 17.0736 17.6278 16.9176 17.7969C16.7616 17.966 16.5723 18.1009 16.3615 18.1932C16.1508 18.2856 15.9232 18.3333 15.6932 18.3333H4.30485C4.07478 18.3333 3.84722 18.2856 3.6365 18.1932C3.42577 18.1009 3.23644 17.966 3.08043 17.7969C2.92441 17.6278 2.8051 17.4282 2.72999 17.2108C2.65488 16.9933 2.62561 16.7627 2.64401 16.5333L3.31318 8.2V8.2Z" stroke="white" stroke-width="1.5" stroke-linecap="round" stroke-linejoin="round"/>
<path d="M13.3327 9.16666V5C13.3327 4.11594 12.9815 3.2681 12.3564 2.64297C11.7313 2.01785 10.8834 1.66666 9.99935 1.66666C9.11529 1.66666 8.26745 2.01785 7.64233 2.64297C7.0172 3.2681 6.66602 4.11594 6.66602 5V9.16666" stroke="white" stroke-width="1.5" stroke-linecap="round" stroke-linejoin="round"/>
</svg>
